<?xml version="1.0" standalone="no"?>
<!DOCTYPE svg PUBLIC "-//W3C//DTD SVG 20010904//EN"
 "http://www.w3.org/TR/2001/REC-SVG-20010904/DTD/svg10.dtd">
<svg version="1.0" xmlns="http://www.w3.org/2000/svg"
 width="300.000000pt" height="300.000000pt" viewBox="0 0 300.000000 300.000000"
 preserveAspectRatio="xMidYMid meet">
<metadata>
Created by potrace 1.11, written by Peter Selinger 2001-2013
</metadata>
<g transform="translate(0.000000,300.000000) scale(0.100000,-0.100000)"
fill="#000000" stroke="none">
<path d="M286 2332 c-4 -8 -18 -67 -22 -97 -3 -26 -14 -92 -20 -119 -2 -11
-15 -86 -29 -166 -25 -144 -30 -171 -40 -220 -2 -14 -7 -41 -10 -60 -3 -19 -7
-46 -10 -60 -3 -14 -7 -41 -10 -60 -3 -19 -8 -48 -12 -65 -3 -16 -7 -39 -9
-50 -2 -11 -14 -81 -28 -155 -13 -74 -27 -153 -30 -175 -3 -22 -8 -51 -11 -65
l-6 -25 238 1 c259 2 259 2 251 9 -3 4 -1 25 4 48 5 23 11 53 13 67 15 93 21
96 29 13 4 -37 11 -84 17 -103 l9 -36 162 0 163 1 43 85 c51 99 51 104 -1
-165 l-33 -170 430 -3 c236 -1 431 0 433 2 5 5 6 9 18 81 5 28 10 53 11 58 1
4 2 16 3 27 1 22 17 28 18 8 0 -7 3 -29 6 -48 3 -19 9 -56 12 -82 l7 -48 168
0 c166 0 169 0 176 22 4 13 22 50 41 83 l34 60 -6 -48 c-3 -26 -10 -71 -16
-100 -5 -29 -12 -63 -14 -77 -3 -14 -7 -36 -10 -50 -3 -14 -8 -46 -11 -72 l-7
-48 240 0 240 0 22 123 c23 123 56 307 66 362 3 17 12 71 20 120 9 50 18 101
20 115 3 14 10 52 15 85 11 68 15 87 36 200 8 45 16 94 19 110 2 17 13 77 24
135 10 58 22 123 25 145 12 72 16 100 22 128 4 18 1 27 -8 28 -57 4 -532 3
-538 -1 -4 -3 -62 -117 -130 -255 -67 -137 -124 -252 -126 -254 -8 -9 -12 5
-18 64 -3 33 -8 71 -11 85 -5 31 -25 176 -29 210 -17 151 -17 150 -45 151 -14
0 -113 1 -218 1 l-193 1 6 41 c3 23 10 57 14 76 5 19 11 59 15 88 l7 52 -270
0 c-213 0 -273 -3 -284 -13 -7 -8 -67 -125 -132 -260 -66 -136 -121 -245 -123
-243 -3 2 -9 35 -14 72 -5 38 -11 80 -14 94 -2 14 -7 50 -10 80 -4 30 -9 62
-10 70 -3 15 -16 106 -21 145 -1 11 -3 28 -3 37 -1 16 -23 17 -271 17 -148 0
-271 -3 -274 -7z m448 -95 c8 -3 16 -30 20 -64 3 -32 8 -69 11 -83 5 -34 23
-164 31 -225 3 -27 8 -59 10 -70 2 -11 7 -48 10 -82 l6 -61 -110 32 c-61 17
-113 34 -115 36 -3 3 -8 28 -11 55 -14 114 -24 129 -32 54 -3 -24 -7 -53 -9
-64 -2 -11 -4 -23 -4 -26 -1 -4 -44 6 -96 21 -53 15 -99 29 -103 29 -4 1 -18
5 -31 8 -27 7 -28 -13 21 265 l31 177 31 3 c48 5 326 0 340 -5z m862 -22 c-4
-16 -8 -39 -10 -50 -2 -11 -18 -99 -35 -195 -18 -96 -38 -206 -46 -245 -20
-101 -32 -177 -34 -205 -3 -40 -14 -40 -140 -5 -69 19 -125 36 -127 38 -2 2
45 219 70 320 2 9 1 15 -2 13 -4 -3 -95 -178 -202 -390 l-195 -386 -94 2 c-75
2 -95 6 -97 18 -1 8 -5 35 -8 60 -19 129 -33 216 -46 289 -6 30 -10 56 -10 57
0 2 77 -13 150 -30 36 -9 68 -16 73 -16 7 0 367 725 367 740 0 13 23 15 212
15 l179 0 -5 -30z m439 -268 c4 -23 9 -49 10 -57 1 -8 6 -41 10 -74 3 -32 8
-68 10 -80 4 -22 24 -164 31 -226 3 -19 7 -46 9 -60 3 -14 8 -51 11 -84 6 -54
5 -58 -12 -53 -11 3 -46 13 -79 23 -33 9 -76 22 -95 29 l-35 13 -21 133 c-12
74 -23 127 -24 119 -2 -17 -6 -43 -20 -140 -5 -36 -11 -85 -14 -110 -11 -97
-44 -345 -50 -377 -7 -39 -18 -103 -18 -110 0 -5 -4 -15 -8 -23 -7 -13 -32
-16 -147 -15 -81 0 -138 5 -138 10 1 15 13 89 55 330 22 121 42 236 45 255 3
19 10 58 15 85 14 69 80 437 80 445 0 4 85 8 189 8 l189 2 7 -43z m849 19 c-7
-36 -49 -275 -59 -336 -3 -19 -8 -42 -10 -50 -2 -8 -6 -31 -9 -50 -16 -101
-67 -384 -70 -388 -4 -3 -255 63 -261 70 -5 4 9 70 53 261 22 93 36 165 32
160 -5 -4 -96 -181 -203 -393 l-196 -384 -86 -1 c-47 -1 -89 2 -94 5 -4 3 -13
41 -20 85 -7 44 -14 91 -16 104 -2 13 -7 45 -11 70 -4 25 -8 53 -10 63 -9 53
-16 108 -13 108 2 0 54 -13 115 -29 l112 -28 90 186 c182 376 273 555 284 562
6 4 93 7 194 7 181 0 182 0 178 -22z m-2484 -381 c41 -9 82 -18 90 -20 8 -2
19 -4 23 -4 4 -1 5 -20 2 -43 -3 -24 -10 -74 -15 -113 -6 -38 -12 -86 -14
-105 -3 -19 -7 -44 -9 -55 -2 -11 -7 -38 -11 -60 -14 -81 -2 -75 -160 -75
l-142 0 17 98 c10 53 21 117 24 142 4 25 8 53 11 62 6 20 8 32 24 126 l12 74
37 -5 c20 -3 70 -13 111 -22z m911 -185 c63 -12 117 -25 121 -28 6 -6 -8 -91
-78 -477 -3 -16 -7 -32 -10 -35 -7 -7 -284 -7 -284 0 0 3 25 130 55 283 30
152 55 280 55 283 0 3 6 4 13 1 7 -3 65 -15 128 -27z m1294 -255 c65 -14 121
-27 123 -30 4 -3 -2 -42 -23 -165 -3 -14 -7 -36 -10 -50 -3 -14 -14 -79 -26
-145 -11 -66 -22 -122 -25 -124 -2 -3 -67 -5 -144 -6 l-141 0 5 30 c3 16 10
53 15 80 5 28 12 70 16 95 3 25 8 52 10 60 2 8 7 35 10 60 5 38 19 106 40 198
7 27 5 27 150 -3z"/>
<path d="M21 888 c-21 -106 -23 -126 -13 -132 15 -9 30 15 37 64 9 58 11 59
19 13 17 -92 33 -96 72 -18 15 30 29 53 31 51 2 -1 -1 -25 -6 -52 -5 -27 -7
-52 -5 -56 9 -14 34 4 35 26 1 19 2 19 8 -3 7 -26 3 -25 124 -22 32 1 37 4 37
26 0 14 8 29 19 35 17 9 21 5 31 -25 7 -20 18 -35 28 -36 9 -1 26 -2 37 -3 15
-1 23 8 30 34 13 44 26 44 44 3 8 -18 22 -33 30 -34 70 -4 129 -3 143 3 10 5
20 3 24 -3 10 -16 34 18 34 47 0 35 32 23 45 -17 7 -19 15 -33 19 -32 28 7 29
10 18 43 -11 29 -10 36 8 52 25 23 26 64 2 77 -10 5 -76 10 -147 10 l-129 1
-39 -38 -39 -37 8 38 c6 35 4 39 -12 35 -11 -2 -20 -13 -22 -26 -2 -12 -8 -22
-13 -22 -6 0 -8 4 -5 9 3 4 -3 16 -13 25 -15 14 -37 16 -127 14 l-109 -3 -7
-30 -7 -30 3 33 c2 27 -1 32 -19 32 -13 0 -27 -10 -33 -22 -6 -13 -23 -43 -36
-67 -23 -40 -25 -42 -30 -20 -3 13 -9 42 -13 64 -7 30 -14 41 -30 43 -18 3
-23 -4 -32 -50z m319 -22 c-6 -30 -12 -64 -13 -75 0 -11 -6 -17 -11 -13 -6 3
-26 6 -46 7 -19 0 -34 4 -32 8 1 4 2 15 2 26 0 13 7 18 28 19 47 0 52 2 52 16
0 9 -11 13 -32 12 -27 0 -33 3 -33 19 0 16 8 21 43 23 23 2 42 8 42 14 0 6 3
9 6 5 3 -3 1 -30 -6 -61z m290 19 c-4 -22 -11 -58 -15 -80 l-7 -40 -24 47 -24
48 37 35 c20 19 38 33 39 32 2 -1 -1 -20 -6 -42z m-193 9 c4 -10 -1 -22 -11
-29 -18 -13 -47 -14 -46 -2 0 4 0 16 0 27 0 25 47 28 57 4z m319 -21 c-16 -93
-13 -88 -56 -87 -22 0 -43 3 -46 7 -11 11 8 48 24 46 35 -3 52 1 52 14 0 9
-12 14 -31 15 -37 1 -41 4 -33 26 4 11 19 16 51 16 l45 0 -6 -37z m94 17 c0
-22 -30 -42 -48 -31 -6 3 -10 17 -9 29 2 30 57 33 57 2z m-370 -40 c-10 -36
-10 -34 -10 -62 0 -28 -16 -13 -25 25 -5 16 -3 27 3 27 6 0 14 9 17 20 10 33
24 23 15 -10z m-277 -31 c-6 -6 -7 3 -4 23 4 28 6 29 9 9 2 -13 0 -27 -5 -32z"/>
<path d="M655 700 c-6 -10 -9 -20 -25 -104 -13 -64 -13 -65 8 -62 10 2 18 13
20 27 1 13 5 35 9 49 5 21 7 18 17 -24 6 -27 16 -51 23 -53 6 -2 24 19 39 47
15 27 29 48 31 46 2 -2 0 -22 -6 -45 -5 -24 -5 -43 0 -47 14 -9 29 5 30 29 0
12 5 31 10 42 8 17 8 15 4 -7 -4 -20 1 -34 15 -48 59 -59 149 24 126 115 -14
56 -90 51 -126 -7 -23 -37 -24 -36 -11 10 10 32 9 33 -16 30 -18 -2 -32 -15
-49 -47 -36 -69 -42 -70 -50 -12 -4 35 -13 55 -25 61 -11 7 -20 7 -24 0z m259
-33 c16 -12 17 -20 10 -52 -10 -42 -32 -62 -58 -52 -21 8 -21 65 0 95 18 26
24 27 48 9z"/>
<path d="M967 698 c-15 -9 -5 -19 22 -21 18 -1 21 -6 16 -32 -18 -102 -18
-115 -3 -115 11 0 19 21 29 73 13 66 16 72 39 72 17 0 24 -5 21 -15 -14 -60
-13 -92 4 -110 40 -44 122 -4 126 60 1 16 3 19 6 8 2 -9 0 -33 -6 -52 -8 -32
-7 -36 9 -36 13 0 20 10 24 36 5 26 12 34 24 32 9 -2 17 -8 17 -13 2 -29 18
-55 35 -55 17 0 18 3 8 31 -9 26 -8 37 7 61 24 41 13 78 -23 79 -15 1 -34 2
-42 3 -24 2 -40 -14 -41 -43 l-1 -26 -9 27 c-9 24 -32 39 -64 43 -5 1 -21 -5
-34 -13 -17 -10 -25 -11 -31 -3 -8 14 -114 21 -133 9z m221 -65 c3 -44 -16
-73 -48 -73 -34 0 -36 81 -2 106 29 21 47 10 50 -33z m140 32 c8 -7 -12 -34
-29 -38 -22 -6 -35 13 -25 39 4 11 13 13 28 8 13 -3 24 -8 26 -9z"/>
<path d="M1408 698 c-52 -18 -47 -70 9 -93 40 -17 40 -38 0 -43 -19 -2 -27 1
-27 12 0 9 -8 16 -18 16 -26 0 -23 -29 5 -47 28 -18 88 -10 97 13 13 35 6 55
-29 71 -37 18 -45 40 -19 50 10 4 22 -1 30 -12 19 -25 49 -13 34 15 -6 11 -14
20 -18 21 -4 0 -14 2 -22 3 -8 2 -27 -1 -42 -6z"/>
<path d="M1520 700 c-13 -8 -39 -159 -29 -166 14 -9 26 4 32 33 5 24 11 28 42
30 22 1 43 9 51 20 14 17 15 17 12 -2 -11 -97 89 -115 134 -25 18 35 18 35 12
5 -3 -16 -8 -38 -11 -48 -4 -14 0 -18 13 -15 12 2 21 15 24 32 7 40 37 43 45
4 7 -28 29 -47 42 -35 3 3 0 20 -6 38 -10 28 -8 35 9 51 43 41 9 88 -57 81
-44 -5 -41 -2 -47 -37 -7 -38 -16 -46 -16 -13 0 38 -38 61 -76 47 -16 -6 -37
-19 -46 -27 -16 -15 -18 -15 -18 0 0 23 -84 43 -110 27z m76 -33 c13 -12 -18
-48 -39 -45 -20 3 -23 11 -18 47 1 10 47 8 57 -2z m139 -6 c14 -47 -14 -104
-49 -99 -18 3 -21 10 -20 47 1 30 7 48 19 58 26 18 43 16 50 -6z m119 13 c17
-7 22 -43 6 -45 -31 -4 -40 -3 -40 4 0 4 0 16 0 27 0 21 8 24 34 14z"/>
<path d="M1933 702 c-31 -4 -29 -22 1 -22 18 0 24 -5 22 -17 -2 -10 -7 -40
-10 -67 -4 -27 -9 -53 -12 -58 -3 -4 4 -8 15 -8 14 0 21 7 22 20 1 11 2 23 3
28 2 4 6 28 10 55 5 26 13 47 20 46 28 -3 47 2 44 12 -4 11 -69 17 -115 11z"/>
<path d="M2093 703 c-13 -2 -29 -14 -37 -25 -19 -27 -7 -52 34 -73 17 -9 30
-22 30 -30 0 -20 -49 -20 -56 0 -9 22 -34 18 -34 -5 0 -35 67 -53 101 -27 40
30 31 64 -25 92 -11 6 -21 17 -21 25 0 21 30 24 48 5 20 -19 37 -19 37 -1 0
14 -38 48 -50 45 -3 -1 -15 -4 -27 -6z"/>
</g>
</svg>
